<?xml version="1.0" standalone="no"?>
<!DOCTYPE svg PUBLIC "-//W3C//DTD SVG 20010904//EN"
 "http://www.w3.org/TR/2001/REC-SVG-20010904/DTD/svg10.dtd">
<svg version="1.0" xmlns="http://www.w3.org/2000/svg"
 width="780.000000pt" height="646.000000pt" viewBox="0 0 780.000000 646.000000"
 preserveAspectRatio="xMidYMid meet">

<g transform="translate(0.000000,646.000000) scale(0.100000,-0.100000)"
fill="#000000" stroke="none">
<path d="M4980 5843 c0 -11 390 -236 398 -229 7 8 24 -3 -192 122 -213 122
-206 119 -206 107z"/>
<path d="M4980 5772 c0 -11 389 -236 396 -229 3 3 -5 12 -18 20 -17 11 -328
191 -370 214 -5 2 -8 0 -8 -5z"/>
<path d="M3832 5738 c-8 -8 -12 -48 -12 -113 l0 -101 68 -34 c37 -19 70 -36
73 -38 4 -1 3 16 -1 40 -5 24 -7 44 -7 45 3 3 287 -163 298 -174 5 -5 77 -284
159 -619 82 -335 163 -662 179 -726 l28 -117 -51 30 c-28 16 -119 68 -202 116
l-150 86 -17 96 c-9 53 -19 107 -22 121 -3 14 -12 66 -21 115 -9 50 -20 94
-24 98 -4 5 -47 -15 -95 -44 -49 -28 -119 -67 -157 -85 l-68 -34 0 -68 c0 -50
6 -79 23 -112 22 -44 36 -53 777 -482 415 -240 758 -438 762 -440 9 -3 -9 -78
-22 -91 -4 -5 -25 1 -46 13 l-39 22 -62 -36 c-34 -20 -65 -41 -68 -46 -3 -5
25 -27 62 -50 l68 -40 30 34 c30 34 30 35 52 17 l22 -18 -29 -28 -30 -28 30
-19 c17 -10 30 -23 30 -29 0 -6 -15 -1 -34 10 -19 12 -38 21 -43 20 -20 -4
-34 3 -66 34 -20 17 -56 43 -82 56 l-46 25 -55 -30 c-93 -49 -93 -59 -1 -108
l55 -29 45 26 c25 15 48 27 51 27 16 0 2 -17 -30 -38 -19 -12 -32 -27 -29 -32
3 -5 33 -25 66 -45 l60 -35 54 31 c30 17 55 35 55 40 0 4 11 -3 25 -16 31 -32
43 -31 94 6 28 20 52 29 69 27 22 -2 28 2 30 20 4 24 10 26 30 13 10 -6 12
-21 7 -56 l-8 -47 34 18 c19 9 44 24 57 32 21 14 21 16 7 32 -9 10 -28 23 -43
29 -25 11 -27 15 -24 66 2 30 7 55 10 55 3 0 49 -25 103 -55 104 -59 111 -61
127 -42 15 18 27 1455 13 1500 -6 19 -24 45 -39 59 -32 31 -1984 1158 -2004
1158 -8 0 -19 -5 -26 -12z m940 -672 c35 -18 38 -24 53 -95 9 -42 20 -83 24
-91 4 -8 168 -107 363 -220 195 -113 366 -213 381 -223 l27 -17 0 -390 c0
-280 -3 -390 -11 -390 -21 0 -949 535 -961 554 -4 6 -8 183 -8 393 0 288 3
382 12 385 7 3 31 -6 54 -19 l42 -23 -14 72 c-16 84 -17 91 -6 86 4 -2 24 -12
44 -22z m171 -1076 c3 -11 1 -18 -4 -14 -5 3 -9 12 -9 20 0 20 7 17 13 -6z
m22 -29 c-13 -15 -13 -19 2 -34 10 -9 15 -17 12 -17 -3 0 -16 12 -30 28 -13
15 -20 24 -15 20 5 -4 15 -3 23 3 11 10 11 15 1 28 -12 14 -11 14 5 2 16 -12
16 -16 2 -30z m26 -4 c-6 -8 -7 -18 -3 -22 4 -5 1 -5 -6 -1 -10 6 -10 11 -1
22 6 8 14 14 16 14 3 0 0 -6 -6 -13z m20 -20 c-10 -9 -11 -8 -5 6 3 10 9 15
12 12 3 -3 0 -11 -7 -18z m-1 -71 c0 -2 -8 -10 -17 -17 -16 -13 -17 -12 -4 4
13 16 21 21 21 13z m-5 -56 c10 -11 16 -20 13 -20 -3 0 -13 9 -23 20 -10 11
-16 20 -13 20 3 0 13 -9 23 -20z m490 -314 c20 -13 30 -15 38 -7 28 28 36 0
12 -46 -8 -15 -16 -39 -19 -53 -8 -42 -30 -63 -55 -55 -19 6 -21 11 -15 41 5
26 3 34 -9 34 -8 0 -18 7 -21 16 -8 20 -8 92 0 122 7 23 7 23 24 -5 9 -16 30
-37 45 -47z m94 -403 c1 -25 -3 -31 -14 -27 -16 6 -20 49 -8 80 6 16 7 16 14
-2 4 -10 8 -33 8 -51z m-339 -88 c7 -9 10 -18 7 -21 -7 -8 -47 14 -47 26 0 15
26 12 40 -5z"/>
<path d="M4675 4930 c-7 -12 2 -30 16 -30 12 0 12 27 0 35 -5 3 -12 1 -16 -5z"/>
<path d="M4790 4861 c0 -5 5 -13 10 -16 6 -3 10 -2 10 4 0 5 -4 13 -10 16 -5
3 -10 2 -10 -4z"/>
<path d="M4740 4483 l0 -228 194 -113 c106 -61 196 -112 200 -112 3 0 6 102 6
228 l0 227 -192 110 c-106 61 -196 112 -200 113 -4 2 -8 -99 -8 -225z m214 92
l176 -100 0 -213 c0 -132 -4 -212 -10 -210 -5 2 -88 48 -184 103 l-176 100 0
213 c0 132 4 212 10 210 5 -1 88 -48 184 -103z"/>
<path d="M4872 4359 c2 -7 10 -15 17 -17 8 -3 12 1 9 9 -2 7 -10 15 -17 17 -8
3 -12 -1 -9 -9z"/>
<path d="M4970 4336 c0 -8 5 -18 10 -21 6 -3 10 1 10 9 0 8 -4 18 -10 21 -5 3
-10 -1 -10 -9z"/>
<path d="M5040 4251 c0 -5 5 -13 10 -16 6 -3 10 -2 10 4 0 5 -4 13 -10 16 -5
3 -10 2 -10 -4z"/>
<path d="M5240 4416 c0 -8 281 -168 286 -163 4 4 -271 167 -282 167 -2 0 -4
-2 -4 -4z"/>
<path d="M5242 4354 c14 -14 281 -164 285 -160 3 2 -28 23 -69 47 -40 23 -103
59 -139 80 -58 35 -93 50 -77 33z"/>
<path d="M5240 4302 c0 -7 81 -55 260 -156 22 -12 30 -14 20 -4 -21 21 -280
169 -280 160z"/>
<path d="M5240 4243 c0 -5 42 -32 93 -60 50 -29 116 -66 145 -83 28 -17 52
-27 52 -23 0 5 -42 32 -93 60 -50 29 -116 66 -144 83 -29 17 -53 27 -53 23z"/>
<path d="M5246 4181 c16 -18 284 -171 284 -163 0 4 -46 34 -102 67 -154 88
-194 109 -182 96z"/>
<path d="M5246 4121 c17 -17 276 -163 280 -158 5 4 -272 167 -284 167 -3 0 -2
-4 4 -9z"/>
<path d="M5246 4062 c21 -19 204 -121 204 -114 0 4 -45 33 -100 65 -91 52
-128 70 -104 49z"/>
<path d="M4981 5701 c3 -7 94 -64 203 -127 108 -62 196 -109 194 -103 -2 6
-73 52 -158 101 -85 49 -175 101 -199 115 -24 14 -42 20 -40 14z"/>
<path d="M4982 5628 c2 -6 73 -51 158 -100 85 -49 175 -101 199 -115 24 -14
42 -20 40 -14 -3 7 -93 63 -202 126 -109 63 -197 109 -195 103z"/>
<path d="M4990 5546 c11 -10 220 -132 383 -223 4 -2 7 0 7 4 0 9 -381 233
-396 233 -5 0 -2 -6 6 -14z"/>
<path d="M2570 5472 c-43 -21 -58 -69 -59 -184 -1 -80 3 -87 40 -68 24 13 26
76 3 102 -14 15 -15 20 -3 34 12 14 14 14 24 0 10 -13 15 -13 42 7 17 12 39
34 49 49 13 19 21 24 27 15 6 -8 7 -6 3 6 -3 10 -6 20 -6 23 0 6 -58 34 -72
34 -7 0 -29 -8 -48 -18z"/>
<path d="M4980 5483 c1 -11 392 -235 398 -228 3 3 3 7 1 9 -8 7 -389 226 -394
226 -3 0 -5 -3 -5 -7z"/>
<path d="M5160 5312 c0 -13 209 -136 217 -128 8 8 13 4 -87 61 -47 26 -95 55
-107 63 -13 8 -23 10 -23 4z"/>
<path d="M5531 5198 c-29 -85 -30 -92 -13 -104 9 -8 24 -11 32 -8 8 3 11 2 7
-2 -4 -4 11 -18 34 -32 22 -13 42 -22 44 -20 6 6 -59 258 -66 258 -4 0 -21
-41 -38 -92z"/>
<path d="M5877 5250 c-15 -56 -68 -322 -65 -324 20 -16 132 -76 135 -72 3 2
-11 98 -29 213 -23 138 -37 200 -41 183z"/>
<path d="M2576 5212 c-2 -4 4 -13 14 -20 15 -9 19 -8 24 4 3 9 6 18 6 20 0 7
-39 4 -44 -4z"/>
<path d="M2492 5146 c-9 -20 -8 -27 6 -38 15 -11 15 -11 5 2 -8 10 -9 21 -3
30 9 14 11 13 14 -9 3 -23 13 -18 11 6 -1 35 -19 40 -33 9z"/>
<path d="M2634 4982 c3 -6 2 -13 -4 -17 -6 -4 -8 -10 -5 -14 2 -5 -3 -8 -13
-8 -39 0 -53 -3 -48 -12 3 -5 -1 -11 -9 -15 -8 -3 -15 -14 -15 -25 0 -11 -10
-27 -22 -37 -16 -11 -17 -15 -5 -11 15 6 17 -1 17 -48 0 -30 4 -55 9 -55 5 0
14 -14 20 -31 9 -27 9 -30 -5 -25 -12 4 -14 2 -10 -9 3 -8 9 -22 12 -30 7 -18
-17 -20 -34 -3 -9 9 -12 4 -12 -25 0 -33 3 -37 38 -46 48 -14 131 -14 171 0
l31 11 3 111 c3 158 -1 256 -13 275 -8 14 -9 13 -10 -9 0 -28 -22 -53 -57 -63
-22 -7 -23 -4 -23 38 0 25 -5 48 -12 52 -6 4 -8 3 -4 -4z"/>
<path d="M2610 4971 c0 -7 -5 -9 -12 -5 -7 5 -8 3 -3 -5 5 -9 10 -10 18 -2 6
6 8 14 4 18 -4 3 -7 1 -7 -6z"/>
<path d="M3820 4918 c0 -40 3 -45 38 -63 20 -11 84 -47 142 -80 l106 -61 -21
110 -20 111 -5 -57 -5 -58 -90 55 c-49 30 -102 61 -117 70 l-28 16 0 -43z"/>
<path d="M5993 4856 l-32 -23 32 -16 c18 -9 52 -28 76 -43 l44 -27 -36 64
c-20 35 -40 65 -44 66 -4 1 -22 -8 -40 -21z"/>
<path d="M1842 4753 c-1 -7 -7 -13 -13 -13 -7 0 -17 -8 -24 -17 -7 -9 -23 -18
-36 -20 -13 -3 -30 -6 -38 -7 -8 -2 -18 -12 -22 -23 -7 -18 0 -22 64 -41 39
-12 73 -19 75 -18 1 2 1 37 -1 77 -1 41 -4 68 -5 62z"/>
<path d="M1790 4731 c0 -7 -5 -9 -12 -5 -7 5 -8 3 -3 -5 5 -9 10 -10 18 -2 6
6 8 14 4 18 -4 3 -7 1 -7 -6z"/>
<path d="M3834 4696 c-27 -17 -74 -49 -103 -70 -46 -34 -51 -41 -35 -47 27
-11 126 -11 120 0 -3 4 5 6 17 4 28 -5 85 30 96 60 10 27 0 57 -25 73 -16 10
-27 7 -70 -20z m-21 -43 c-7 -2 -19 -2 -25 0 -7 3 -2 5 12 5 14 0 19 -2 13 -5z
m44 -9 c-3 -3 -12 -4 -19 -1 -8 3 -5 6 6 6 11 1 17 -2 13 -5z m46 -11 c-7 -2
-19 -2 -25 0 -7 3 -2 5 12 5 14 0 19 -2 13 -5z"/>
<path d="M1214 4450 c0 -113 2 -159 3 -102 2 56 2 148 0 205 -1 56 -3 10 -3
-103z"/>
<path d="M3420 4633 c1 -11 289 -175 300 -171 8 3 -72 51 -257 156 -24 13 -43
20 -43 15z"/>
<path d="M3370 4601 c0 -11 280 -173 292 -169 4 2 -59 42 -142 90 -82 48 -150
83 -150 79z"/>
<path d="M3325 4557 c56 -38 276 -159 281 -155 6 6 -273 168 -289 168 -6 0 -3
-6 8 -13z"/>
<path d="M1387 4499 c-11 -15 -16 -17 -20 -7 -3 7 -6 2 -7 -12 -1 -23 -2 -23
-10 -5 -8 18 -9 18 -9 2 -1 -10 -5 -16 -10 -12 -5 3 -12 1 -16 -5 -4 -6 -11
-7 -17 -4 -7 4 -8 2 -4 -5 6 -9 11 -9 21 -1 10 8 15 8 21 -2 4 -7 3 -10 -1 -5
-5 4 -17 -1 -28 -10 -11 -10 -17 -13 -14 -7 4 7 0 14 -8 17 -9 4 -12 1 -8 -9
3 -9 0 -14 -8 -12 -8 2 -13 -3 -11 -10 1 -8 -2 -11 -8 -7 -16 10 -21 -16 -18
-85 l3 -63 88 131 c48 73 85 132 83 132 -3 0 -11 -9 -19 -21z"/>
<path d="M2510 4179 c0 -11 5 -17 10 -14 6 3 10 13 10 21 0 8 -4 14 -10 14 -5
0 -10 -9 -10 -21z"/>
<path d="M2798 4193 c-18 -5 -25 -23 -9 -23 5 0 16 -3 25 -6 10 -4 16 -1 16 9
0 19 -9 25 -32 20z"/>
<path d="M3350 4080 c0 -41 -5 -55 -30 -83 -71 -82 -246 -110 -374 -61 -14 5
-16 -3 -16 -58 0 -81 -24 -121 -93 -155 -110 -55 -251 -52 -356 8 -65 37 -81
71 -81 170 0 64 -2 70 -17 64 -63 -25 -185 -24 -265 1 -13 4 -18 -6 -27 -46
-6 -29 -9 -55 -6 -60 10 -17 111 -32 188 -28 l77 3 -6 -33 c-9 -49 20 -115 69
-157 54 -47 147 -75 245 -75 76 0 77 0 194 67 117 67 138 88 138 137 0 23 2
24 63 19 l62 -4 148 86 147 87 0 47 c0 33 -7 57 -25 84 -14 20 -28 37 -30 37
-3 0 -5 -22 -5 -50z"/>
<path d="M3713 4063 c-35 -21 -63 -42 -63 -48 0 -11 5 -14 80 -58 l46 -26 67
40 c37 22 65 44 62 49 -5 8 -121 80 -128 80 -1 0 -30 -17 -64 -37z"/>
<path d="M2708 4049 c-17 -11 36 -33 57 -25 9 3 15 12 12 19 -4 13 -50 17 -69
6z"/>
<path d="M3542 3964 c-35 -20 -61 -41 -59 -47 2 -6 68 -49 147 -95 l143 -83
66 38 c36 21 65 42 65 48 -1 9 -279 175 -293 175 -3 0 -34 -16 -69 -36z"/>
<path d="M3870 3964 c-30 -18 -55 -39 -55 -45 0 -6 29 -27 65 -47 l65 -35 63
38 c34 21 61 43 59 49 -5 15 -108 76 -127 75 -8 0 -40 -16 -70 -35z"/>
<path d="M2575 3946 l-30 -13 27 -8 c31 -8 48 0 48 21 0 17 -6 17 -45 0z"/>
<path d="M4042 3872 c-34 -20 -61 -43 -60 -50 2 -7 30 -28 63 -47 l61 -34 63
37 c35 20 64 42 65 47 0 9 -110 84 -124 84 -3 0 -33 -17 -68 -37z"/>
<path d="M3370 3864 c-30 -18 -56 -37 -58 -42 -1 -4 65 -47 147 -94 l149 -86
62 37 c35 20 65 41 67 46 4 12 -275 175 -297 174 -8 0 -40 -16 -70 -35z"/>
<path d="M3195 3764 c-44 -25 -87 -49 -95 -54 -8 -6 -39 -24 -68 -41 -29 -17
-51 -36 -49 -43 6 -17 108 -75 146 -82 28 -6 37 -3 57 22 20 24 25 27 34 14 8
-12 10 -9 10 12 0 15 5 30 10 33 6 4 8 15 5 25 -3 10 -1 21 5 25 7 4 14 -1 16
-13 4 -12 64 -53 172 -115 166 -95 166 -95 197 -80 61 32 106 64 100 72 -4 7
-430 258 -454 268 -4 2 -42 -18 -86 -43z"/>
<path d="M3873 3774 c-35 -20 -63 -40 -63 -45 0 -11 87 -67 117 -75 15 -4 41
6 83 31 33 20 60 40 60 45 0 8 -120 81 -131 80 -2 -1 -32 -17 -66 -36z"/>
<path d="M4203 3774 c-35 -20 -63 -40 -63 -44 0 -10 115 -80 130 -80 20 0 131
72 127 83 -4 13 -106 76 -122 76 -5 0 -38 -16 -72 -35z"/>
<path d="M3710 3678 c-36 -20 -65 -42 -65 -48 0 -6 29 -27 65 -47 l65 -36 63
37 c34 20 62 42 62 49 0 7 -28 28 -63 48 l-62 35 -65 -38z"/>
<path d="M4043 3682 c-35 -21 -63 -42 -63 -49 0 -7 28 -28 62 -48 l62 -37 35
22 c20 11 51 28 69 37 17 9 32 20 32 24 0 6 -96 68 -130 85 -3 1 -33 -14 -67
-34z"/>
<path d="M4373 3682 c-35 -20 -63 -42 -63 -49 0 -6 28 -27 63 -46 l62 -35 67
36 c38 20 66 42 65 47 -3 9 -115 84 -127 84 -3 0 -33 -17 -67 -37z"/>
<path d="M3873 3582 c-35 -20 -63 -41 -63 -47 0 -6 28 -27 63 -47 60 -35 63
-35 92 -20 52 26 105 62 105 70 0 7 -124 83 -132 82 -2 -1 -31 -17 -65 -38z"/>
<path d="M4203 3583 c-35 -21 -63 -41 -63 -45 0 -10 89 -66 117 -74 23 -6 133
51 140 73 3 9 -112 83 -128 83 -2 0 -32 -17 -66 -37z"/>
<path d="M4533 3583 c-35 -21 -63 -41 -63 -45 0 -9 118 -78 133 -78 22 1 122
66 122 80 0 13 -99 79 -120 79 -5 1 -38 -16 -72 -36z"/>
<path d="M3278 3585 c5 -29 -21 -75 -43 -75 -8 0 -15 -5 -15 -11 0 -16 -68 -4
-90 16 -22 20 -61 12 -87 -17 -15 -17 -17 -34 -14 -117 5 -129 6 -282 2 -357
l-3 -62 -229 132 c-126 72 -229 136 -229 141 0 6 -16 19 -36 30 -19 10 -40 27
-45 38 -9 15 -13 16 -25 6 -47 -39 -53 -109 -11 -147 12 -11 137 -86 277 -167
140 -81 269 -156 286 -166 l30 -18 -8 -78 c-7 -71 -10 -317 -5 -403 2 -35 3
-35 47 -35 54 0 67 -10 62 -45 -5 -36 19 -54 61 -46 36 7 125 62 141 88 17 29
-4 40 -52 29 l-42 -9 1 47 c0 67 25 300 32 307 3 4 95 -45 204 -109 109 -63
371 -215 583 -338 l385 -224 75 0 75 0 395 229 c217 126 397 230 399 232 7 6
-11 124 -19 124 -5 0 -191 -106 -415 -236 -342 -199 -411 -236 -438 -232 -19
2 -274 143 -631 348 l-598 345 5 93 c2 51 7 95 10 98 3 3 14 1 24 -5 14 -7 26
-6 44 3 28 15 29 4 -15 134 -30 84 -36 117 -36 181 0 71 -3 83 -26 111 -15 17
-25 32 -23 34 2 1 30 17 61 35 32 18 60 36 63 41 5 8 -106 80 -124 80 -5 0 -6
-11 -3 -25z m-141 -1117 c-2 -13 -4 -5 -4 17 -1 22 1 32 4 23 2 -10 2 -28 0
-40z m0 -70 c-3 -7 -5 -2 -5 12 0 14 2 19 5 13 2 -7 2 -19 0 -25z m-42 -48
c-3 -5 -14 -10 -23 -9 -14 0 -13 2 3 9 27 11 27 11 20 0z m108 -87 c-7 -2 -21
-2 -30 0 -10 3 -4 5 12 5 17 0 24 -2 18 -5z"/>
<path d="M2179 3548 c-12 -13 -18 -17 -14 -10 6 11 4 12 -11 3 -11 -6 -26 -15
-34 -22 -13 -9 -12 -10 3 -5 22 7 22 -12 0 -36 -16 -18 -16 -18 0 -12 23 8 22
-15 0 -33 -10 -8 6 -2 35 13 52 27 52 27 52 76 0 26 -2 48 -5 48 -2 0 -14 -10
-26 -22z m21 -57 c0 -12 -29 -35 -36 -28 -11 10 5 37 21 37 8 0 15 -4 15 -9z"/>
<path d="M856 3516 c3 -9 11 -16 16 -16 13 0 5 23 -10 28 -7 2 -10 -2 -6 -12z"/>
<path d="M4373 3491 c-34 -20 -63 -41 -63 -48 0 -10 108 -83 124 -83 12 0 136
75 136 82 0 5 -111 76 -130 83 -3 1 -33 -14 -67 -34z"/>
<path d="M4703 3492 c-35 -21 -63 -42 -63 -49 0 -7 29 -28 64 -48 l63 -35 67
37 c36 21 66 43 66 48 0 8 -106 74 -130 82 -3 0 -33 -15 -67 -35z"/>
<path d="M3373 3482 c-35 -20 -63 -41 -63 -47 0 -5 29 -26 65 -45 l65 -35 52
29 c62 34 78 46 78 56 0 7 -122 81 -132 80 -1 -1 -31 -17 -65 -38z"/>
<path d="M3703 3484 c-35 -20 -63 -40 -63 -44 0 -10 115 -80 132 -80 16 0 128
70 128 80 0 9 -112 80 -126 80 -5 -1 -37 -17 -71 -36z"/>
<path d="M4035 3485 c-33 -19 -60 -39 -60 -45 0 -6 30 -28 66 -47 l65 -37 62
38 c34 21 62 43 62 49 0 11 -109 77 -127 77 -4 0 -35 -16 -68 -35z"/>
<path d="M970 3476 c0 -3 20 -17 45 -32 25 -14 45 -33 45 -41 0 -12 -10 -9
-45 11 -25 15 -45 23 -45 19 0 -5 20 -20 45 -35 25 -15 45 -34 45 -42 0 -11
-10 -9 -45 11 -25 13 -45 22 -45 20 0 -5 88 -57 96 -57 2 0 4 21 4 48 0 46 -1
48 -50 75 -28 16 -50 26 -50 23z"/>
<path d="M3542 3391 c-37 -21 -61 -42 -60 -50 3 -13 761 -460 781 -461 16 0
137 75 134 83 -2 7 -426 255 -752 441 l-40 23 -63 -36z"/>
<path d="M3873 3391 c-35 -20 -63 -41 -63 -48 0 -7 29 -28 64 -48 l64 -35 63
37 c35 20 66 38 68 40 9 6 -23 31 -79 61 l-55 29 -62 -36z"/>
<path d="M4203 3392 c-35 -21 -63 -42 -63 -47 0 -6 29 -27 64 -48 l64 -36 66
37 c36 20 66 42 66 47 0 9 -123 87 -132 84 -2 0 -31 -17 -65 -37z"/>
<path d="M4533 3392 c-35 -20 -63 -41 -63 -47 0 -5 29 -26 65 -45 l65 -35 65
35 c36 19 65 40 65 47 0 10 -118 84 -131 83 -2 -1 -32 -18 -66 -38z"/>
<path d="M4863 3392 c-35 -20 -63 -40 -63 -44 0 -8 117 -78 131 -78 24 0 129
66 127 79 -3 15 -104 80 -123 80 -5 0 -38 -16 -72 -37z"/>
<path d="M2110 3334 c-80 -47 -152 -89 -160 -94 -8 -5 -12 -11 -9 -14 8 -8
319 173 319 185 0 12 11 18 -150 -77z"/>
<path d="M1807 3343 c-11 -10 -8 -43 3 -43 9 0 30 31 30 44 0 8 -25 7 -33 -1z"/>
<path d="M1210 3321 c0 -22 25 -39 38 -27 8 8 -10 38 -26 44 -7 2 -12 -6 -12
-17z"/>
<path d="M4033 3292 c-35 -20 -63 -40 -63 -43 0 -4 27 -24 60 -44 42 -25 68
-35 83 -31 31 8 117 64 117 76 0 9 -115 80 -128 80 -4 -1 -35 -17 -69 -38z"/>
<path d="M4362 3293 c-34 -21 -61 -42 -59 -47 2 -5 32 -25 68 -44 l64 -36 60
35 c33 20 61 42 63 50 2 13 -103 79 -125 79 -4 0 -36 -17 -71 -37z"/>
<path d="M4707 3301 c-86 -50 -85 -56 6 -105 l54 -28 66 38 c37 21 67 42 67
46 0 9 -117 78 -133 78 -7 0 -34 -13 -60 -29z"/>
<path d="M5028 3297 c-32 -18 -58 -37 -58 -44 0 -7 29 -28 64 -48 l65 -36 65
38 c37 20 66 42 66 48 0 12 -112 75 -132 75 -7 -1 -39 -15 -70 -33z"/>
<path d="M2197 3303 c-5 -7 -5 -19 -1 -25 5 -10 4 -10 -6 -1 -10 9 -20 8 -44
-5 -24 -12 -27 -17 -13 -20 23 -5 22 -16 -5 -36 l-23 -17 23 6 c27 8 28 -2 5
-28 -18 -20 -18 -20 16 -2 19 9 29 20 24 24 -6 3 -10 22 -10 41 -1 19 1 29 4
22 3 -6 10 -9 15 -6 7 4 8 2 4 -4 -4 -7 -2 -12 5 -12 7 0 9 -8 6 -21 -4 -15
-3 -19 4 -12 6 6 9 32 7 59 -2 30 -6 44 -11 37z"/>
<path d="M1710 3281 c-7 -13 -7 -22 0 -26 15 -9 30 4 30 26 0 25 -16 25 -30 0z"/>
<path d="M1300 3275 c0 -14 21 -45 31 -45 18 0 5 45 -13 48 -10 2 -18 1 -18
-3z"/>
<path d="M860 3251 c0 -6 5 -13 10 -16 6 -3 10 1 10 9 0 9 -4 16 -10 16 -5 0
-10 -4 -10 -9z"/>
<path d="M1616 3224 c-3 -9 -3 -20 0 -25 8 -13 34 9 34 27 0 19 -26 18 -34 -2z"/>
<path d="M4203 3201 c-34 -20 -63 -41 -63 -48 0 -7 29 -28 65 -48 l65 -37 62
38 c35 20 65 39 67 41 8 6 -23 30 -79 61 l-55 29 -62 -36z"/>
<path d="M4533 3202 c-35 -21 -63 -42 -63 -47 0 -6 29 -27 64 -48 l65 -37 65
38 c36 20 66 42 66 47 0 9 -123 87 -132 84 -2 0 -31 -17 -65 -37z"/>
<path d="M4866 3202 c-33 -20 -59 -41 -59 -47 0 -5 28 -26 62 -46 l62 -37 65
37 c35 20 64 41 64 48 0 9 -120 85 -132 82 -1 0 -30 -17 -62 -37z"/>
<path d="M1402 3209 c1 -12 9 -24 16 -27 9 -3 13 3 10 19 -1 12 -9 24 -16 27
-9 3 -13 -3 -10 -19z"/>
<path d="M1012 3182 c27 -15 48 -33 48 -39 0 -18 -7 -16 -47 8 -19 12 -36 19
-39 16 -3 -3 15 -17 40 -32 25 -15 46 -34 46 -42 0 -11 -11 -9 -46 12 -26 15
-44 23 -40 17 3 -6 26 -22 51 -35 l45 -26 0 49 c0 47 -2 50 -43 75 -24 14 -48
25 -53 25 -5 0 12 -13 38 -28z"/>
<path d="M1202 3169 c6 -19 318 -200 318 -185 0 6 -48 40 -107 74 -60 34 -132
75 -162 93 -29 17 -51 25 -49 18z"/>
<path d="M2225 3144 c-11 -8 -80 -49 -152 -91 -73 -42 -133 -81 -133 -85 0 -5
3 -7 8 -5 89 47 312 182 312 188 0 13 -12 10 -35 -7z"/>
<path d="M4362 3100 c-73 -46 -73 -49 13 -95 l56 -30 64 35 c36 19 65 40 65
47 0 11 -112 83 -128 83 -4 0 -36 -18 -70 -40z"/>
<path d="M4700 3106 c-30 -18 -56 -39 -58 -47 -2 -9 21 -27 61 -48 l63 -34 67
37 c37 21 67 41 67 46 0 9 -123 80 -137 80 -4 -1 -33 -16 -63 -34z"/>
<path d="M1812 3078 c-14 -14 -16 -38 -3 -38 5 0 14 7 21 15 17 20 0 41 -18
23z"/>
<path d="M1210 3056 c0 -18 26 -40 34 -27 9 14 -4 41 -20 41 -8 0 -14 -6 -14
-14z"/>
<path d="M4869 3011 c-34 -20 -64 -41 -66 -46 -2 -6 26 -28 61 -48 l65 -38 65
38 c36 20 66 42 66 48 0 5 -29 26 -64 46 l-65 37 -62 -37z"/>
<path d="M2176 3018 c-9 -13 -14 -17 -10 -10 5 10 -2 10 -25 -2 -36 -19 -40
-27 -11 -19 28 7 26 -21 -2 -35 l-23 -11 23 0 c12 -1 22 -5 22 -10 0 -5 -10
-16 -22 -25 -22 -16 -21 -16 9 -1 21 10 30 20 27 30 -3 8 1 23 9 35 13 19 15
19 21 4 4 -10 2 -22 -4 -28 -8 -8 -9 -5 -4 9 5 16 4 18 -6 8 -15 -14 -4 -34
15 -26 10 3 15 20 15 54 0 54 -9 61 -34 27z"/>
<path d="M4531 3007 c-30 -18 -56 -37 -58 -43 -2 -6 24 -28 59 -49 l63 -37 52
29 c71 38 86 50 79 61 -8 14 -113 72 -128 72 -7 0 -37 -15 -67 -33z"/>
<path d="M1717 3023 c-4 -3 -7 -15 -7 -26 0 -16 3 -17 15 -7 8 7 15 19 15 26
0 15 -12 19 -23 7z"/>
<path d="M1300 3007 c0 -18 28 -42 37 -33 9 8 -9 38 -25 44 -7 2 -12 -3 -12
-11z"/>
<path d="M852 2989 c2 -7 10 -15 17 -17 8 -3 12 1 9 9 -2 7 -10 15 -17 17 -8
3 -12 -1 -9 -9z"/>
<path d="M1622 2968 c-14 -14 -16 -38 -4 -38 12 0 32 23 32 37 0 16 -12 17
-28 1z"/>
<path d="M1397 2964 c-8 -9 11 -44 23 -44 6 0 10 6 10 14 0 16 -24 38 -33 30z"/>
<path d="M970 2947 c0 -3 20 -17 45 -31 25 -15 45 -34 45 -42 0 -13 -9 -11
-45 10 -25 15 -45 23 -45 19 0 -5 20 -19 45 -33 25 -14 45 -30 45 -37 0 -18
-7 -16 -47 8 -19 12 -36 19 -39 17 -2 -3 18 -17 46 -32 l50 -27 0 49 c0 48 0
49 -50 76 -27 15 -50 25 -50 23z"/>
<path d="M4366 2911 c-33 -20 -61 -41 -63 -46 -1 -6 27 -27 62 -48 l65 -38 65
38 c35 21 65 43 65 50 0 9 -120 85 -132 82 -1 0 -30 -17 -62 -38z"/>
<path d="M4696 2912 c-32 -20 -58 -41 -59 -47 0 -5 28 -26 63 -46 l62 -37 64
37 c35 20 64 41 64 48 0 11 -113 84 -128 82 -4 0 -33 -17 -66 -37z"/>
<path d="M5028 2914 c-32 -19 -58 -40 -58 -47 0 -7 65 -49 145 -95 l144 -83
51 28 c43 24 50 32 50 58 -1 28 -9 35 -128 103 -71 39 -133 72 -138 71 -5 0
-35 -16 -66 -35z"/>
<path d="M1202 2909 c6 -19 318 -200 318 -185 0 6 -48 40 -107 74 -60 34 -132
75 -162 93 -29 17 -51 25 -49 18z"/>
<path d="M5319 2890 l-24 -20 24 -20 c34 -29 41 -25 41 20 0 45 -7 49 -41 20z"/>
<path d="M5856 2892 c-4 -10 -24 -29 -46 -41 -22 -12 -40 -26 -40 -30 0 -8
-115 -81 -127 -81 -3 0 -18 -9 -34 -21 -26 -18 -29 -26 -29 -72 0 -29 4 -57 8
-64 9 -14 274 134 310 173 28 32 29 86 1 125 -24 34 -35 36 -43 11z"/>
<path d="M2225 2885 c-10 -9 -79 -50 -152 -91 -73 -42 -133 -81 -133 -86 0 -6
15 -1 33 9 17 11 89 52 160 92 70 41 127 78 127 82 0 13 -12 10 -35 -6z"/>
<path d="M4528 2814 c-32 -20 -58 -41 -58 -47 0 -7 28 -27 63 -46 l63 -34 67
37 c37 21 67 42 67 46 0 10 -121 80 -136 80 -5 0 -35 -17 -66 -36z"/>
<path d="M4860 2815 c-30 -19 -55 -39 -55 -46 0 -6 65 -49 144 -94 l144 -84
51 30 c28 16 57 33 65 38 8 5 12 15 9 22 -6 16 -270 169 -290 169 -7 0 -38
-16 -68 -35z"/>
<path d="M1807 2813 c-12 -11 -7 -33 7 -33 12 0 26 20 26 36 0 7 -26 5 -33 -3z"/>
<path d="M1210 2791 c0 -22 15 -35 30 -26 7 4 7 13 0 26 -14 25 -30 25 -30 0z"/>
<path d="M2192 2772 c-10 -3 -10 -7 -1 -18 9 -11 9 -18 -1 -29 -10 -12 -10
-15 0 -15 8 0 10 -8 7 -21 -4 -15 -3 -19 4 -12 15 15 7 101 -9 95z"/>
<path d="M1717 2763 c-4 -3 -7 -15 -7 -25 0 -26 24 -17 28 10 3 21 -8 29 -21
15z"/>
<path d="M1306 2752 c-9 -15 4 -42 20 -42 18 0 18 11 1 35 -9 11 -16 14 -21 7z"/>
<path d="M4700 2722 c-35 -20 -65 -41 -67 -47 -3 -10 274 -175 295 -175 19 0
133 72 129 83 -2 7 -153 98 -278 167 -11 6 -34 -2 -79 -28z"/>
<path d="M2134 2735 c-16 -13 -16 -14 -1 -9 25 9 22 -20 -5 -40 l-23 -17 23 6
c28 8 29 -9 0 -29 -33 -23 -8 -19 27 4 17 11 25 20 18 20 -6 0 -11 15 -10 36
1 20 3 32 5 25 4 -12 22 -5 22 10 0 14 -34 11 -56 -6z"/>
<path d="M852 2729 c2 -7 10 -15 17 -17 8 -3 12 1 9 9 -2 7 -10 15 -17 17 -8
3 -12 -1 -9 -9z"/>
<path d="M1627 2706 c-21 -22 -22 -36 -2 -36 17 0 29 22 23 41 -3 8 -9 6 -21
-5z"/>
<path d="M1397 2694 c-8 -9 11 -44 24 -44 6 0 9 10 7 22 -3 22 -19 34 -31 22z"/>
<path d="M975 2681 c3 -6 23 -20 45 -32 22 -13 40 -29 40 -36 0 -17 -3 -17
-45 8 -20 12 -38 19 -41 16 -3 -2 16 -17 41 -31 25 -15 45 -34 45 -42 0 -11
-10 -9 -45 12 -25 14 -45 23 -45 20 0 -6 83 -56 94 -56 4 0 6 21 4 47 -3 44
-6 48 -51 75 -27 15 -46 24 -42 19z"/>
<path d="M1202 2649 c6 -19 318 -200 318 -185 0 6 -48 40 -107 74 -60 34 -132
75 -162 93 -29 17 -51 25 -49 18z"/>
<path d="M2200 2602 c-25 -15 -59 -36 -75 -48 -17 -12 -159 -96 -317 -187
l-287 -167 -303 176 c-167 97 -328 191 -358 210 -30 18 -61 33 -69 34 -18 0
-124 -61 -117 -67 3 -3 195 -115 427 -249 l422 -244 56 34 c31 18 115 67 186
108 157 91 339 196 499 290 l118 70 -58 34 c-33 18 -63 33 -69 33 -5 0 -30
-12 -55 -27z"/>
<path d="M1805 2539 c-4 -11 -4 -23 -1 -26 8 -9 36 17 36 33 0 22 -28 16 -35
-7z"/>
<path d="M1212 2528 c2 -12 9 -23 16 -26 18 -6 15 35 -4 42 -11 4 -15 0 -12
-16z"/>
<path d="M5481 2524 c0 -11 3 -14 6 -6 3 7 2 16 -1 19 -3 4 -6 -2 -5 -13z"/>
<path d="M1722 2498 c-14 -14 -16 -38 -2 -38 13 0 32 38 22 44 -5 3 -14 0 -20
-6z"/>
<path d="M1300 2476 c0 -18 26 -40 34 -27 9 14 -4 41 -20 41 -8 0 -14 -6 -14
-14z"/>
<path d="M2415 2463 c-24 -6 -534 -299 -554 -318 -30 -29 -3 -53 152 -139 47
-27 550 -319 897 -521 203 -119 239 -130 300 -97 19 10 113 64 208 120 95 56
175 102 177 102 2 0 31 16 65 36 74 44 90 69 64 94 -34 32 -1228 718 -1259
723 -16 3 -39 3 -50 0z m226 -180 c16 -10 29 -20 29 -23 0 -3 -105 -65 -232
-138 l-233 -133 -32 17 c-18 9 -33 20 -33 23 0 7 451 270 463 270 5 1 22 -7
38 -16z m-331 -48 c0 -6 -56 -35 -67 -35 -13 1 41 40 55 40 6 0 12 -2 12 -5z
m-265 -155 c-16 -10 -32 -17 -35 -14 -7 8 31 34 49 34 10 0 4 -8 -14 -20z
m1011 -184 c28 -21 7 -50 -39 -54 -37 -3 -77 11 -77 28 0 36 78 53 116 26z
m258 4 c29 -11 35 -44 10 -54 -9 -3 -30 -6 -48 -6 -53 0 -77 42 -33 60 29 12
41 12 71 0z m-390 -88 c15 -18 15 -20 -3 -36 -24 -22 -89 -18 -104 6 -27 42
71 69 107 30z m272 4 c15 -12 17 -18 8 -33 -8 -13 -24 -18 -59 -18 -35 0 -51
5 -59 18 -14 24 15 47 59 47 17 0 40 -6 51 -14z m265 4 c10 -6 19 -20 19 -31
0 -39 -91 -49 -121 -13 -29 35 52 70 102 44z m-667 -93 c22 -36 -56 -63 -105
-37 -22 12 -24 31 -7 48 19 19 99 11 112 -11z m261 9 c39 -28 -13 -66 -70 -52
-55 14 -35 66 25 66 14 0 35 -6 45 -14z m279 -2 c21 -21 20 -31 -4 -44 -54
-29 -140 13 -96 46 26 19 81 18 100 -2z m-279 -158 c39 -28 -13 -66 -70 -52
-54 14 -38 66 19 66 18 0 41 -6 51 -14z"/>
<path d="M1620 2435 c-16 -19 -3 -40 16 -24 15 13 19 39 5 39 -5 0 -14 -7 -21
-15z"/>
<path d="M1397 2434 c-8 -9 11 -44 23 -44 6 0 10 6 10 14 0 16 -24 38 -33 30z"/>
<path d="M5436 2272 c-21 -15 -50 -26 -64 -27 -17 0 -28 -6 -30 -17 -6 -31 52
-23 95 14 21 18 40 33 42 34 1 2 1 7 0 12 -2 5 -21 -2 -43 -16z"/>
<path d="M5557 2163 c-5 -7 -19 -13 -33 -13 -17 0 -24 -5 -24 -20 0 -13 7 -20
18 -20 28 0 55 24 50 46 -2 13 -6 15 -11 7z"/>
<path d="M6975 2124 c-226 -131 -365 -216 -365 -224 0 -9 18 1 303 165 139 80
175 105 150 105 -5 0 -44 -21 -88 -46z"/>
<path d="M1805 2020 c-21 -41 -19 -75 8 -104 22 -25 1171 -700 1256 -739 70
-31 119 -21 242 50 351 203 456 266 471 286 26 33 22 80 -9 117 -25 30 -27 31
-34 13 -4 -11 -34 -38 -66 -60 -98 -67 -510 -303 -529 -303 -18 0 -1130 641
-1236 712 -32 21 -58 43 -58 48 0 22 -30 8 -45 -20z"/>
<path d="M7217 2009 c-9 -6 -15 -14 -12 -20 3 -5 0 -6 -7 -4 -8 3 -22 -1 -33
-10 -16 -12 -17 -14 -2 -9 22 8 24 -24 2 -32 -8 -4 -15 -10 -15 -15 0 -4 7 -6
15 -3 21 8 19 -16 -2 -33 -10 -8 6 -2 35 13 52 27 52 27 52 76 0 50 -3 54 -33
37z m13 -85 c-7 -7 -16 -14 -21 -14 -13 0 -11 29 4 44 10 12 13 12 20 -1 5 -8
4 -20 -3 -29z"/>
<path d="M5862 1969 c2 -7 10 -15 17 -17 8 -3 12 1 9 9 -2 7 -10 15 -17 17 -8
3 -12 -1 -9 -9z"/>
<path d="M5980 1927 c0 -2 23 -18 50 -35 28 -17 50 -36 50 -42 0 -15 -9 -13
-57 15 -23 14 -43 21 -43 16 0 -5 19 -20 42 -33 24 -13 44 -31 46 -40 3 -15
-4 -14 -45 8 -26 14 -39 18 -28 9 11 -9 37 -25 58 -36 l38 -20 -3 51 c-3 50
-4 52 -55 81 -29 17 -53 29 -53 26z"/>
<path d="M7234 1837 c-28 -18 -58 -39 -67 -48 -19 -20 -608 -363 -622 -362 -5
0 -95 50 -200 110 -104 60 -274 155 -377 212 l-186 102 -52 -32 c-28 -17 -48
-35 -43 -39 7 -7 396 -233 718 -418 72 -41 135 -75 140 -75 9 0 382 214 759
435 l119 70 -67 39 c-37 22 -68 39 -69 38 -1 0 -25 -15 -53 -32z"/>
<path d="M6842 1788 c-14 -14 -16 -38 -4 -38 12 0 32 23 32 37 0 16 -12 17
-28 1z"/>
<path d="M6230 1761 c0 -19 23 -35 34 -24 7 8 -12 43 -24 43 -6 0 -10 -9 -10
-19z"/>
<path d="M6736 1724 c-3 -9 -3 -20 0 -25 8 -13 34 9 34 27 0 19 -26 18 -34 -2z"/>
<path d="M6320 1717 c0 -18 28 -42 37 -33 9 8 -9 38 -25 44 -7 2 -12 -3 -12
-11z"/>
<path d="M6653 1683 c-15 -5 -18 -43 -3 -43 12 0 32 38 23 43 -5 2 -14 2 -20
0z"/>
<path d="M6420 1656 c0 -18 26 -40 34 -27 9 14 -4 41 -20 41 -8 0 -14 -6 -14
-14z"/>
<path d="M3680 1624 c0 -8 5 -12 10 -9 6 3 10 10 10 16 0 5 -4 9 -10 9 -5 0
-10 -7 -10 -16z"/>
<path d="M3646 1611 c-4 -7 -5 -15 -2 -18 9 -9 19 4 14 18 -4 11 -6 11 -12 0z"/>
<path d="M3605 1589 c-4 -6 -5 -13 -2 -16 7 -7 27 6 27 18 0 12 -17 12 -25 -2z"/>
<path d="M3577 1573 c-4 -3 -7 -11 -7 -17 0 -6 5 -5 12 2 6 6 9 14 7 17 -3 3
-9 2 -12 -2z"/>
<path d="M3458 1504 c-38 -20 -36 -39 1 -19 30 15 49 35 34 35 -4 -1 -20 -8
-35 -16z"/>
<path d="M3337 1433 c-4 -3 -7 -11 -7 -17 0 -6 5 -5 12 2 6 6 9 14 7 17 -3 3
-9 2 -12 -2z"/>
<path d="M3290 1400 c0 -5 5 -10 10 -10 6 0 10 5 10 10 0 6 -4 10 -10 10 -5 0
-10 -4 -10 -10z"/>
<path d="M3255 1380 c-3 -5 -2 -10 4 -10 5 0 13 5 16 10 3 6 2 10 -4 10 -5 0
-13 -4 -16 -10z"/>
<path d="M3220 1354 c0 -8 5 -12 10 -9 6 3 10 10 10 16 0 5 -4 9 -10 9 -5 0
-10 -7 -10 -16z"/>
</g>
</svg>
